<svg t="1606961052030" class="icon" viewBox="0 0 1024 1024" version="1.1" xmlns="http://www.w3.org/2000/svg" p-id="3750" width="200" height="200"><path d="M874.666667 251.733333H586.903704c-11.757037 0-21.333333-9.576296-21.333334-21.333333v-59.733333h-105.244444v59.733333c0 11.757037-9.576296 21.333333-21.333333 21.333333H149.333333c-11.757037 0-21.333333-9.576296-21.333333-21.333333s9.576296-21.333333 21.333333-21.333333h268.325926v-59.733334c0-11.757037 9.576296-21.333333 21.333334-21.333333h147.911111c11.757037 0 21.333333 9.576296 21.333333 21.333333v59.733334h266.42963c11.757037 0 21.333333 9.576296 21.333333 21.333333s-9.576296 21.333333-21.333333 21.333333zM761.837037 895.431111h-499.674074c-24.272593 0-44.088889-19.816296-44.088889-44.088889v-520.533333c0-11.757037 9.576296-21.333333 21.333333-21.333333s21.333333 9.576296 21.333334 21.333333v520.533333c0 0.758519 0.663704 1.422222 1.422222 1.422222h499.674074c0.758519 0 1.422222-0.663704 1.422222-1.422222v-520.533333c0-11.757037 9.576296-21.333333 21.333334-21.333333s21.333333 9.576296 21.333333 21.333333v520.533333c0 24.367407-19.816296 44.088889-44.088889 44.088889z" p-id="3751"></path><path d="M369.777778 766.672593c-11.757037 0-21.333333-9.576296-21.333334-21.333334V363.045926c0-11.757037 9.576296-21.333333 21.333334-21.333333s21.333333 9.576296 21.333333 21.333333v382.293333c0 11.851852-9.576296 21.333333-21.333333 21.333334zM512 766.672593c-11.757037 0-21.333333-9.576296-21.333333-21.333334V363.045926c0-11.757037 9.576296-21.333333 21.333333-21.333333s21.333333 9.576296 21.333333 21.333333v382.293333c0 11.851852-9.576296 21.333333-21.333333 21.333334zM654.222222 766.672593c-11.757037 0-21.333333-9.576296-21.333333-21.333334V363.045926c0-11.757037 9.576296-21.333333 21.333333-21.333333s21.333333 9.576296 21.333334 21.333333v382.293333c0 11.851852-9.576296 21.333333-21.333334 21.333334z" p-id="3752"></path></svg>