<svg t="1604299839305" class="icon" viewBox="0 0 1024 1024" version="1.1" xmlns="http://www.w3.org/2000/svg" p-id="2757" width="200" height="200"><path d="M512 0C229.257143 0 0 229.257143 0 512s229.257143 512 512 512 512-229.257143 512-512S794.742857 0 512 0z m259.428571 440.342857c-1.142857 4.8-4 11.885714-8 20.342857h0.114286l-0.457143 0.8c-23.2 49.257143-83.542857 145.942857-83.542857 145.942857s-0.114286-0.228571-0.342857-0.571428l-17.714286 30.628571h85.142857L584.114286 852.571429l36.914285-146.285715h-66.971428l23.314286-96.8c-18.857143 4.457143-41.028571 10.742857-67.428572 19.2 0 0-35.657143 20.8-102.742857-40 0 0-45.257143-39.657143-18.971429-49.6 11.2-4.228571 54.171429-9.6 88-14.057143 45.714286-6.171429 73.828571-9.371429 73.828572-9.371428S409.142857 517.714286 375.657143 512.571429c-33.485714-5.257143-75.885714-60.685714-84.914286-109.485715 0 0-13.942857-26.742857 30.057143-14.057143 44 12.685714 226.171429 49.371429 226.171429 49.371429s-237.028571-72.342857-252.8-89.942857c-15.771429-17.6-46.4-96.228571-42.4-144.571429 0 0 1.714286-12 14.171428-8.8 0 0 175.2 79.657143 294.971429 123.314286 119.771429 43.314286 223.885714 65.485714 210.514285 121.942857z" p-id="2758" fill="#1296db"></path></svg>