<svg t="1604406345598" class="icon" viewBox="0 0 1024 1024" version="1.1" xmlns="http://www.w3.org/2000/svg" p-id="3179" width="200" height="200"><path d="M434.537424 342.595383c-138.75727 0-251.523134 111.435595-251.523134 248.555611 0 137.017688 112.868192 248.453283 251.523134 248.453283 138.654942 0 251.625462-111.537923 251.625462-248.453283C686.060558 454.030978 573.192365 342.595383 434.537424 342.595383L434.537424 342.595383zM957.230738 405.629659 838.120516 405.629659 838.120516 272.193465l-104.579594 103.351654c44.819826 60.476067 71.629859 134.868792 71.629859 215.503548 0 201.893874-166.181273 366.130908-370.633357 366.130908-204.349755 0-370.633357-164.237034-370.633357-366.130908 0-201.893874 166.283601-366.233237 370.633357-366.233237 79.918457 0 153.697212 25.377436 214.275607 67.946038l112.663536-111.333267L609.825922 181.4282l0-117.677626 347.404817 0L957.230738 405.629659 957.230738 405.629659 957.230738 405.629659z" p-id="3180" fill="#1296db"></path></svg>