<svg t="1604416340525" class="icon" viewBox="0 0 1025 1024" version="1.1" xmlns="http://www.w3.org/2000/svg" p-id="8695" width="200" height="200"><path d="M704.256734 65.075163c-61.52412-2.062061-153.814393 75.220707-192.207613 75.718058-38.264278-0.497351-130.553527-77.780119-192.07867-75.718058-61.775865 1.939258-65.467108 34.95577-63.652699 71.846705 1.501262 30.757966 76.409846 89.911995 97.542132 112.920092 4.248971 4.627613 17.759308 7.254566 17.759308 7.254566l304.502435 0c0 0 13.379347-2.62593 17.634458-7.254566 21.195735-23.007074 72.652085-82.162126 74.151301-112.920092C769.722819 100.030933 766.034646 67.013398 704.256734 65.075163z" p-id="8696"></path><path d="M865.954033 530.831784c-36.015966-54.70755-137.436615-169.444098-163.007193-197.95273-9.190754-10.131217-24.952472-11.757329-24.952472-11.757329l-331.824998 0c0 0-15.6952 1.626112-24.88493 11.757329-25.697475 28.507608-127.055699 143.24518-163.069618 197.95273-59.966573 91.5422-112.113688 195.587756-88.474181 270.308042 23.635414 74.71824 94.47309 135.055267 183.074167 142.996504 135.18421 12.130854 231.223033 17.380666 259.233291 17.25684 28.014351 0.123826 124.054198-5.12701 259.36121-17.25684 88.600054-7.94226 159.442847-68.279288 183.078261-142.996504C978.125029 726.41954 925.976891 622.375008 865.954033 530.831784zM616.097746 769.312453l-104.048625-54.649219-104.044532 54.649219 19.88584-115.797767-84.098314-82.037277 116.301258-16.879222 51.955748-105.419921 52.025336 105.419921 116.361636 16.879222-84.22214 82.037277L616.097746 769.312453z" p-id="8697"></path></svg>