<svg t="1604407636383" class="icon" viewBox="0 0 1024 1024" version="1.1" xmlns="http://www.w3.org/2000/svg" p-id="5982" width="200" height="200"><path d="M512 931.413333c-99.413333 0-331.946667-320.853333-331.946667-497.066666a331.946667 331.946667 0 0 1 663.893334 0c0 165.546667-238.08 497.066667-331.946667 497.066666z m0-758.613333a261.973333 261.973333 0 0 0-261.546667 261.546667c0 155.733333 213.333333 420.266667 261.973334 426.666666 49.92-13.226667 261.12-282.026667 261.12-426.666666A261.973333 261.973333 0 0 0 512 172.8z" p-id="5983"></path><path d="M512 556.8A130.133333 130.133333 0 1 1 642.133333 426.666667 130.56 130.56 0 0 1 512 556.8z m0-189.866667a59.733333 59.733333 0 1 0 59.733333 59.733334A59.733333 59.733333 0 0 0 512 366.933333z" p-id="5984"></path></svg>