<svg t="1601641872640" class="icon" viewBox="0 0 1024 1024" version="1.1" xmlns="http://www.w3.org/2000/svg" p-id="19543" width="200" height="200"><path d="M867.60709 156.441005c-23.331381-23.331381-50.6424-40.624233-76.917834-48.702212-33.181727-10.218736-63.436798-4.950755-82.83766 14.450107L650.468678 179.571818 170.934091 659.106406c-4.114714 4.114714-7.125281 9.214872-8.713452 14.801101l-58.21896 203.792453c-3.429099 11.974729-0.083911 24.836665 8.713452 33.634028 6.506181 6.522554 15.253402 10.034541 24.217564 10.034541 3.14462 0 6.305613-0.434905 9.416464-1.321088l203.792453-58.21896c5.586229-1.589195 10.68741-4.599761 14.801101-8.713452l479.534588-479.534588 57.399291-57.382918C937.616584 280.422737 922.881998 211.733309 867.60709 156.441005zM755.148809 171.443697c6.271844-2.475378 34.386158 3.812839 64.023152 33.432437 29.603225 29.619598 35.891442 57.801451 34.252105 62.868863l-33.165354 33.181727-97.204879-97.204879L755.148809 171.443697zM212.093513 748.700957l63.253626 63.253626-88.541569 25.287943L212.093513 748.700957zM340.724125 780.461311l-97.137341-97.137341 431.099459-431.099459 97.137341 97.137341L340.724125 780.461311z" p-id="19544"></path></svg>